<mxfile host="app.diagrams.net" modified="2024-06-29T15:22:28.527Z" agent="Mozilla/5.0 (Macintosh; Intel Mac OS X 10_15_7) AppleWebKit/537.36 (KHTML, like Gecko) Chrome/126.0.0.0 Safari/537.36" etag="rvqmlRAU_qn4cCV0cAOQ" version="24.6.4" type="github">
  <diagram name="第 1 页" id="R63TyGtk8KyL8w1hz66D">
    <mxGraphModel dx="954" dy="615" grid="1" gridSize="10" guides="1" tooltips="1" connect="1" arrows="1" fold="1" page="1" pageScale="1" pageWidth="827" pageHeight="1169" math="0" shadow="0">
      <root>
        <mxCell id="0" />
        <mxCell id="1" parent="0" />
        <UserObject label="&lt;div style=&quot;background-color:#1e1f22;color:#bcbec4&quot;&gt;&lt;pre style=&quot;font-family:&#39;Menlo-Regular&#39;,monospace;font-size:9.8pt;&quot;&gt;我们看看下面一段代码：&lt;br&gt;&lt;span style=&quot;font-family:&#39;JetBrains Mono&#39;,monospace;&quot;&gt;Person p1 = new Person();&lt;br&gt;&lt;/span&gt;&lt;span style=&quot;font-family:&#39;JetBrains Mono&#39;,monospace;&quot;&gt;p1.age = 10;&lt;br&gt;&lt;/span&gt;&lt;span style=&quot;font-family:&#39;JetBrains Mono&#39;,monospace;&quot;&gt;p1.name = &quot;&lt;/span&gt;小明&lt;span style=&quot;font-family:&#39;JetBrains Mono&#39;,monospace;&quot;&gt;&quot;;&lt;br&gt;&lt;/span&gt;&lt;span style=&quot;font-family:&#39;JetBrains Mono&#39;,monospace;&quot;&gt;Person p2 = p1; // &lt;/span&gt;把&lt;span style=&quot;font-family:&#39;JetBrains Mono&#39;,monospace;&quot;&gt;p1&lt;/span&gt;赋给了&lt;span style=&quot;font-family:&#39;JetBrains Mono&#39;,monospace;&quot;&gt;p2,&lt;/span&gt;让&lt;span style=&quot;font-family:&#39;JetBrains Mono&#39;,monospace;&quot;&gt;p2&lt;/span&gt;指向&lt;span style=&quot;font-family:&#39;JetBrains Mono&#39;,monospace;&quot;&gt;p1&lt;br&gt;&lt;/span&gt;&lt;span style=&quot;font-family:&#39;JetBrains Mono&#39;,monospace;&quot;&gt;System.out.pringln(p2.age);&lt;br&gt;&lt;/span&gt;&lt;span style=&quot;font-family:&#39;JetBrains Mono&#39;,monospace;&quot;&gt;&lt;br&gt;&lt;/span&gt;请问：&lt;span style=&quot;font-family:&#39;JetBrains Mono&#39;,monospace;&quot;&gt;p2.age&lt;/span&gt;究竟是多少？并画出内存图&lt;/pre&gt;&lt;/div&gt;" link="&lt;div style=&quot;background-color:#1e1f22;color:#bcbec4&quot;&gt;&lt;pre style=&quot;font-family:&#39;Menlo-Regular&#39;,monospace;font-size:9.8pt;&quot;&gt;我们看看下面一段代码：&lt;br&gt;&lt;span style=&quot;font-family:&#39;JetBrains Mono&#39;,monospace;&quot;&gt;Person p1 = new Person();&lt;br&gt;&lt;/span&gt;&lt;span style=&quot;font-family:&#39;JetBrains Mono&#39;,monospace;&quot;&gt;p1.age = 10;&lt;br&gt;&lt;/span&gt;&lt;span style=&quot;font-family:&#39;JetBrains Mono&#39;,monospace;&quot;&gt;p1.name = &quot;&lt;/span&gt;小明&lt;span style=&quot;font-family:&#39;JetBrains Mono&#39;,monospace;&quot;&gt;&quot;;&lt;br&gt;&lt;/span&gt;&lt;span style=&quot;font-family:&#39;JetBrains Mono&#39;,monospace;&quot;&gt;Person p2 = p1; // &lt;/span&gt;把&lt;span style=&quot;font-family:&#39;JetBrains Mono&#39;,monospace;&quot;&gt;p1&lt;/span&gt;赋给了&lt;span style=&quot;font-family:&#39;JetBrains Mono&#39;,monospace;&quot;&gt;p2,&lt;/span&gt;让&lt;span style=&quot;font-family:&#39;JetBrains Mono&#39;,monospace;&quot;&gt;p2&lt;/span&gt;指向&lt;span style=&quot;font-family:&#39;JetBrains Mono&#39;,monospace;&quot;&gt;p1&lt;br&gt;&lt;/span&gt;&lt;span style=&quot;font-family:&#39;JetBrains Mono&#39;,monospace;&quot;&gt;System.out.pringln(p2.age);&lt;br&gt;&lt;/span&gt;&lt;span style=&quot;font-family:&#39;JetBrains Mono&#39;,monospace;&quot;&gt;&lt;br&gt;&lt;/span&gt;请问：&lt;span style=&quot;font-family:&#39;JetBrains Mono&#39;,monospace;&quot;&gt;p2.age&lt;/span&gt;究竟是多少？并画出内存图&lt;/pre&gt;&lt;/div&gt;" id="XxMkDsJMGtxLcaraHKOx-1">
          <mxCell style="text;whiteSpace=wrap;html=1;" vertex="1" parent="1">
            <mxGeometry x="30" y="160" width="350" height="180" as="geometry" />
          </mxCell>
        </UserObject>
        <mxCell id="XxMkDsJMGtxLcaraHKOx-2" value="" style="rounded=0;whiteSpace=wrap;html=1;fillColor=#fff2cc;strokeColor=#d6b656;" vertex="1" parent="1">
          <mxGeometry x="370" y="90" width="610" height="410" as="geometry" />
        </mxCell>
        <mxCell id="XxMkDsJMGtxLcaraHKOx-3" value="" style="rounded=0;whiteSpace=wrap;html=1;fillColor=#dae8fc;strokeColor=#6c8ebf;" vertex="1" parent="1">
          <mxGeometry x="390" y="190" width="140" height="280" as="geometry" />
        </mxCell>
        <mxCell id="XxMkDsJMGtxLcaraHKOx-6" value="栈" style="text;html=1;align=center;verticalAlign=middle;resizable=0;points=[];autosize=1;strokeColor=none;fillColor=none;" vertex="1" parent="1">
          <mxGeometry x="394" y="210" width="40" height="30" as="geometry" />
        </mxCell>
        <mxCell id="XxMkDsJMGtxLcaraHKOx-7" value="" style="rounded=0;whiteSpace=wrap;html=1;fillColor=#dae8fc;strokeColor=#6c8ebf;" vertex="1" parent="1">
          <mxGeometry x="570" y="100" width="380" height="200" as="geometry" />
        </mxCell>
        <mxCell id="XxMkDsJMGtxLcaraHKOx-8" value="" style="rounded=0;whiteSpace=wrap;html=1;fillColor=#f8cecc;strokeColor=#b85450;" vertex="1" parent="1">
          <mxGeometry x="570" y="340" width="380" height="130" as="geometry" />
        </mxCell>
        <mxCell id="XxMkDsJMGtxLcaraHKOx-10" value="堆" style="text;html=1;align=center;verticalAlign=middle;resizable=0;points=[];autosize=1;strokeColor=none;fillColor=none;" vertex="1" parent="1">
          <mxGeometry x="580" y="110" width="40" height="30" as="geometry" />
        </mxCell>
        <mxCell id="XxMkDsJMGtxLcaraHKOx-11" value="" style="rounded=0;whiteSpace=wrap;html=1;fillColor=#e1d5e7;strokeColor=#9673a6;" vertex="1" parent="1">
          <mxGeometry x="780" y="350" width="137" height="110" as="geometry" />
        </mxCell>
        <mxCell id="XxMkDsJMGtxLcaraHKOx-12" value="方法区" style="text;html=1;align=center;verticalAlign=middle;resizable=0;points=[];autosize=1;strokeColor=none;fillColor=none;" vertex="1" parent="1">
          <mxGeometry x="570" y="340" width="60" height="30" as="geometry" />
        </mxCell>
        <mxCell id="XxMkDsJMGtxLcaraHKOx-15" value="加载Person类信息&lt;div&gt;&lt;br&gt;&lt;div&gt;1.属性信息&lt;/div&gt;&lt;div&gt;2.方法信息&lt;/div&gt;&lt;/div&gt;" style="text;html=1;align=left;verticalAlign=middle;resizable=0;points=[];autosize=1;strokeColor=none;fillColor=none;" vertex="1" parent="1">
          <mxGeometry x="780" y="350" width="120" height="70" as="geometry" />
        </mxCell>
        <mxCell id="XxMkDsJMGtxLcaraHKOx-16" value="" style="rounded=0;whiteSpace=wrap;html=1;fillColor=#e1d5e7;strokeColor=#9673a6;align=left;" vertex="1" parent="1">
          <mxGeometry x="610" y="140" width="200" height="140" as="geometry" />
        </mxCell>
        <mxCell id="XxMkDsJMGtxLcaraHKOx-17" value="0x0011" style="text;html=1;align=center;verticalAlign=middle;resizable=0;points=[];autosize=1;strokeColor=none;fillColor=none;" vertex="1" parent="1">
          <mxGeometry x="620" y="150" width="60" height="30" as="geometry" />
        </mxCell>
        <mxCell id="XxMkDsJMGtxLcaraHKOx-18" value="0" style="rounded=0;whiteSpace=wrap;html=1;fillColor=#d5e8d4;strokeColor=#82b366;" vertex="1" parent="1">
          <mxGeometry x="620" y="180" width="65" height="30" as="geometry" />
        </mxCell>
        <mxCell id="XxMkDsJMGtxLcaraHKOx-19" value="null" style="rounded=0;whiteSpace=wrap;html=1;fillColor=#d5e8d4;strokeColor=#82b366;" vertex="1" parent="1">
          <mxGeometry x="620" y="230" width="65" height="30" as="geometry" />
        </mxCell>
      </root>
    </mxGraphModel>
  </diagram>
</mxfile>
